<svg xmlns="http://www.w3.org/2000/svg" viewBox="0 0 1600 900" width="1600" height="900">
  <!-- Written by tools/gen-assets.py from brand/icons/freetvos-hulu.svg and the service's NAME. Change those and run tools/gen-assets.sh; do not edit this. -->
  <defs><linearGradient id="ground" x1="0" y1="0" x2="0" y2="1"><stop offset="0.0000" stop-color="#151A23"/><stop offset="0.0625" stop-color="#141922"/><stop offset="0.1250" stop-color="#141821"/><stop offset="0.1875" stop-color="#131820"/><stop offset="0.2500" stop-color="#12171F"/><stop offset="0.3125" stop-color="#12161E"/><stop offset="0.3750" stop-color="#11161D"/><stop offset="0.4375" stop-color="#11151C"/><stop offset="0.5000" stop-color="#10141C"/><stop offset="0.5625" stop-color="#0F131B"/><stop offset="0.6250" stop-color="#0F121A"/><stop offset="0.6875" stop-color="#0E1219"/><stop offset="0.7500" stop-color="#0E1118"/><stop offset="0.8125" stop-color="#0D1017"/><stop offset="0.8750" stop-color="#0C1016"/><stop offset="0.9375" stop-color="#0C0F15"/><stop offset="1.0000" stop-color="#0B0E14"/></linearGradient></defs>
  <rect width="1600" height="900" fill="url(#ground)"/>
  <svg x="160" y="270" width="360" height="360" viewBox="0 0 512 512"><rect x="16" y="16" width="480" height="480" rx="104" fill="#0F7A3D"/>
  <g fill="#FFFFFF"><rect x="132" y="112" width="62" height="288" rx="10"/><path d="M194 216h68c40 0 72 32 72 72v112h-62V294c0-13-11-24-24-24h-54z"/><circle cx="356" cy="176" r="34"/></g></svg>
  <path fill="#E6EAF2" d="M672.9 489.3H658.9V454.4H624.3V489.3H610.2V410.7H624.3V442.4H658.9V410.7H672.9Z M744.8 429.6V489.3H733.9L731.9 481.6H731.2Q728.4 486.2 723.3 488.3Q718.2 490.4 712.6 490.4Q702.6 490.4 697 485.2Q691.3 480 691.3 468.6V429.6H705.3V465.7Q705.3 479 716.2 479Q724.5 479 727.7 473.8Q730.8 468.6 730.8 458.7V429.6Z M775.9 489.3H761.9V405.7H775.9Z M846.1 429.6V489.3H835.2L833.2 481.6H832.5Q829.7 486.2 824.6 488.3Q819.6 490.4 813.9 490.4Q803.9 490.4 798.3 485.2Q792.6 480 792.6 468.6V429.6H806.6V465.7Q806.6 479 817.5 479Q825.8 479 829 473.8Q832.1 468.6 832.1 458.7V429.6Z"/>
  <rect x="600" y="529.27" width="120" height="8" rx="4" fill="#3DDC97"/>
</svg>
